#N canvas 142 73 695 484 10;
#N canvas 0 0 450 300 (subpatch) 0;
#X array sampleBank 307202 float 2;
#X coords 0 1 307202 -1 200 140 1;
#X restore 38 291 graph;
#X obj 54 164 soundfiler;
#X floatatom 54 190 10 0 0 0 - - -;
#X msg 54 49 amen.wav;
#X obj 54 88 list prepend read -resize;
#X obj 54 139 route list;
#X obj 54 113 list append sampleBank;
#X obj 293 249 GrainPlayer;
#X obj 477 155 s~ length;
#X obj 478 129 sig~;
#X obj 297 78 r fileLength;
#X obj 54 216 s fileLength;
#X floatatom 258 79 5 5 95 0 - - -;
#X floatatom 478 79 5 0.01 4 0 - - -;
#X obj 478 103 * 44100;
#X obj 400 127 sig~;
#X obj 399 153 s~ speed;
#X obj 258 156 sig~;
#X floatatom 400 101 5 0.01 4 0 - - -;
#X obj 257 182 s~ start;
#X obj 258 130 *;
#X obj 290 316 dac~;
#X obj 258 101 / 100;
#X obj 293 282 *~ 1;
#X obj 373 258 tgl 15 0 empty empty empty 17 7 0 10 -262144 -1 -1 1
1;
#X connect 1 0 2 0;
#X connect 2 0 11 0;
#X connect 3 0 4 0;
#X connect 4 0 6 0;
#X connect 5 0 1 0;
#X connect 6 0 5 0;
#X connect 7 0 23 0;
#X connect 9 0 8 0;
#X connect 10 0 20 1;
#X connect 12 0 22 0;
#X connect 13 0 14 0;
#X connect 14 0 9 0;
#X connect 15 0 16 0;
#X connect 17 0 19 0;
#X connect 18 0 15 0;
#X connect 20 0 17 0;
#X connect 22 0 20 0;
#X connect 23 0 21 0;
#X connect 23 0 21 1;
#X connect 24 0 23 1;
