#N canvas 598 14 297 406 10;
#X obj 71 273 outlet~;
#X obj 71 156 phasor~;
#X obj 71 183 *~;
#X obj 71 212 +~;
#X obj 125 186 r~ start;
#X obj 125 159 r~ length;
#X obj 87 74 r~ length;
#X obj 71 49 sig~ 44100;
#X obj 71 99 /~;
#X obj 71 127 *~;
#X obj 125 105 r~ speed;
#X obj 71 246 tabread4~ sampleBank;
#X connect 1 0 2 0;
#X connect 2 0 3 0;
#X connect 3 0 11 0;
#X connect 4 0 3 1;
#X connect 5 0 2 1;
#X connect 6 0 8 1;
#X connect 7 0 8 0;
#X connect 8 0 9 0;
#X connect 9 0 1 0;
#X connect 10 0 9 1;
#X connect 11 0 0 0;
