#N canvas 464 23 777 577 10;
#X obj 44 154 phasor~;
#X obj 44 326 *~;
#X obj 44 355 +~;
#X obj 44 11 sig~ 44100;
#X obj 44 61 /~;
#X obj 44 89 *~;
#X obj 44 389 tabread4~ sampleBank;
#X obj 208 387 tabread4~ envelope;
#X obj 93 437 *~;
#X obj 207 354 *~ 441;
#X obj 434 273 wrap~;
#X obj 389 353 *~;
#X obj 389 382 +~;
#X obj 389 416 tabread4~ sampleBank;
#X obj 553 414 tabread4~ envelope;
#X obj 388 452 *~;
#X obj 552 381 *~ 441;
#X obj 434 250 +~ 0.5;
#X obj 340 494 +~;
#X obj 60 36 r~ grainlength;
#X obj 70 298 r~ grainlength;
#X obj 415 325 r~ grainlength;
#X obj 201 14 r~ grainspeed;
#X obj 319 54 noise~;
#X obj 299 78 snapshot~;
#X obj 299 101 * 0.9;
#X obj 299 124 * 1;
#X obj 299 147 + 1;
#X obj 299 10 r speedRand;
#X obj 299 32 bng 15 250 50 0 empty empty empty 17 7 0 10 -262144 -1
-1;
#X obj 365 78 r speedRandAmount;
#X obj 266 190 *~;
#X obj 610 61 noise~;
#X obj 591 85 snapshot~;
#X obj 591 108 * 0.9;
#X obj 591 131 * 1;
#X obj 591 154 + 1;
#X obj 591 39 bng 15 250 50 0 empty empty empty 17 7 0 10 -262144 -1
-1;
#X obj 558 197 *~;
#X obj 494 21 r~ grainstart;
#X obj 591 17 r startRand;
#X obj 657 85 r startRandAmount;
#X obj 340 518 outlet~;
#X connect 0 0 1 0;
#X connect 0 0 9 0;
#X connect 0 0 17 0;
#X connect 1 0 2 0;
#X connect 2 0 6 0;
#X connect 3 0 4 0;
#X connect 4 0 5 0;
#X connect 5 0 0 0;
#X connect 6 0 8 0;
#X connect 7 0 8 1;
#X connect 8 0 18 0;
#X connect 9 0 7 0;
#X connect 10 0 11 0;
#X connect 10 0 16 0;
#X connect 11 0 12 0;
#X connect 12 0 13 0;
#X connect 13 0 15 0;
#X connect 14 0 15 1;
#X connect 15 0 18 1;
#X connect 16 0 14 0;
#X connect 17 0 10 0;
#X connect 18 0 42 0;
#X connect 19 0 4 1;
#X connect 20 0 1 1;
#X connect 21 0 11 1;
#X connect 22 0 31 0;
#X connect 23 0 24 0;
#X connect 24 0 25 0;
#X connect 25 0 26 0;
#X connect 26 0 27 0;
#X connect 27 0 31 1;
#X connect 28 0 29 0;
#X connect 29 0 24 0;
#X connect 30 0 26 1;
#X connect 31 0 5 1;
#X connect 32 0 33 0;
#X connect 33 0 34 0;
#X connect 34 0 35 0;
#X connect 35 0 36 0;
#X connect 36 0 38 1;
#X connect 37 0 33 0;
#X connect 38 0 12 1;
#X connect 38 0 2 1;
#X connect 39 0 38 0;
#X connect 40 0 37 0;
#X connect 41 0 35 1;
