#N canvas 49 74 455 533 10;
#X obj 58 251 random 100;
#X obj 58 300 bng 15 250 50 0 empty empty empty 17 7 0 10 -262144 -1
-1;
#X obj 103 299 bng 15 250 50 0 empty empty empty 17 7 0 10 -262144
-1 -1;
#X obj 58 130 bng 15 250 50 0 empty empty empty 17 7 0 10 -262144 -1
-1;
#X obj 91 130 tgl 15 0 empty empty empty 17 7 0 10 -262144 -1 -1 0
1;
#X obj 58 275 moses 70;
#X obj 114 179 bng 15 250 50 0 empty empty empty 17 7 0 10 -262144
-1 -1;
#X msg 58 322 1;
#X msg 103 322 -1;
#X obj 239 48 metro 300;
#X obj 239 22 tgl 15 0 empty empty empty 17 7 0 10 -262144 -1 -1 0
1;
#X obj 146 251 random 100;
#X obj 146 300 bng 15 250 50 0 empty empty empty 17 7 0 10 -262144
-1 -1;
#X obj 191 299 bng 15 250 50 0 empty empty empty 17 7 0 10 -262144
-1 -1;
#X obj 146 130 bng 15 250 50 0 empty empty empty 17 7 0 10 -262144
-1 -1;
#X obj 179 130 tgl 15 0 empty empty empty 17 7 0 10 -262144 -1 -1 0
1;
#X obj 146 275 moses 70;
#X obj 202 179 bng 15 250 50 0 empty empty empty 17 7 0 10 -262144
-1 -1;
#X obj 235 251 random 100;
#X obj 235 300 bng 15 250 50 0 empty empty empty 17 7 0 10 -262144
-1 -1;
#X obj 280 299 bng 15 250 50 0 empty empty empty 17 7 0 10 -262144
-1 -1;
#X obj 235 130 bng 15 250 50 0 empty empty empty 17 7 0 10 -262144
-1 -1;
#X obj 268 130 tgl 15 0 empty empty empty 17 7 0 10 -262144 -1 -1 0
1;
#X obj 235 275 moses 70;
#X obj 291 179 bng 15 250 50 0 empty empty empty 17 7 0 10 -262144
-1 -1;
#X obj 323 251 random 100;
#X obj 323 300 bng 15 250 50 0 empty empty empty 17 7 0 10 -262144
-1 -1;
#X obj 368 299 bng 15 250 50 0 empty empty empty 17 7 0 10 -262144
-1 -1;
#X obj 323 130 bng 15 250 50 0 empty empty empty 17 7 0 10 -262144
-1 -1;
#X obj 356 130 tgl 15 0 empty empty empty 17 7 0 10 -262144 -1 -1 1
1;
#X obj 379 179 bng 15 250 50 0 empty empty empty 17 7 0 10 -262144
-1 -1;
#X floatatom 290 21 5 0 0 0 - - -;
#X msg 63 388 60;
#X obj 63 362 loadbang;
#X obj 221 383 t b f;
#X obj 221 411 i;
#X obj 233 442 +;
#X msg 146 322 2;
#X msg 323 322 0;
#X msg 368 322 5;
#X obj 323 275 moses 80;
#X msg 280 322 3;
#X obj 189 24 bng 15 250 50 0 empty empty empty 17 7 0 10 -262144 -1
-1;
#X obj 146 155 spigot;
#X obj 235 155 spigot;
#X obj 323 155 spigot;
#X floatatom 233 471 5 0 0 0 - - -;
#X obj 256 75 s gate;
#X obj 189 75 s clock;
#X obj 189 49 t b b;
#X obj 103 203 tgl 15 0 empty empty empty 17 7 0 10 -262144 -1 -1 0
1;
#X obj 58 223 spigot 0;
#X obj 58 182 r clock;
#X obj 58 107 r gate;
#X obj 146 107 r gate;
#X obj 235 107 r gate;
#X obj 323 107 r gate;
#X obj 191 203 tgl 15 0 empty empty empty 17 7 0 10 -262144 -1 -1 0
1;
#X obj 146 223 spigot 0;
#X obj 146 182 r clock;
#X obj 280 203 tgl 15 0 empty empty empty 17 7 0 10 -262144 -1 -1 0
1;
#X obj 235 223 spigot 0;
#X obj 235 182 r clock;
#X obj 368 203 tgl 15 0 empty empty empty 17 7 0 10 -262144 -1 -1 0
1;
#X obj 323 223 spigot 0;
#X obj 323 182 r clock;
#X obj 58 155 spigot;
#X obj 111 65 loadbang;
#X msg 111 94 1;
#X msg 235 322 -5;
#X msg 191 322 -3;
#X connect 0 0 5 0;
#X connect 1 0 7 0;
#X connect 1 0 29 0;
#X connect 2 0 8 0;
#X connect 2 0 15 0;
#X connect 3 0 66 0;
#X connect 4 0 66 1;
#X connect 5 0 1 0;
#X connect 5 1 2 0;
#X connect 6 0 4 0;
#X connect 6 0 50 0;
#X connect 7 0 34 0;
#X connect 8 0 34 0;
#X connect 9 0 49 0;
#X connect 10 0 9 0;
#X connect 11 0 16 0;
#X connect 12 0 37 0;
#X connect 12 0 4 0;
#X connect 13 0 70 0;
#X connect 13 0 22 0;
#X connect 14 0 43 0;
#X connect 15 0 43 1;
#X connect 16 0 12 0;
#X connect 16 1 13 0;
#X connect 17 0 15 0;
#X connect 17 0 57 0;
#X connect 18 0 23 0;
#X connect 19 0 69 0;
#X connect 19 0 15 0;
#X connect 20 0 41 0;
#X connect 20 0 29 0;
#X connect 21 0 44 0;
#X connect 22 0 44 1;
#X connect 23 0 19 0;
#X connect 23 1 20 0;
#X connect 24 0 22 0;
#X connect 24 0 60 0;
#X connect 25 0 40 0;
#X connect 26 0 38 0;
#X connect 26 0 22 0;
#X connect 27 0 39 0;
#X connect 27 0 4 0;
#X connect 28 0 45 0;
#X connect 29 0 45 1;
#X connect 30 0 29 0;
#X connect 30 0 63 0;
#X connect 31 0 9 1;
#X connect 32 0 35 1;
#X connect 33 0 32 0;
#X connect 34 0 35 0;
#X connect 34 1 36 1;
#X connect 35 0 36 0;
#X connect 36 0 35 1;
#X connect 36 0 46 0;
#X connect 37 0 34 0;
#X connect 38 0 34 0;
#X connect 39 0 34 0;
#X connect 40 0 26 0;
#X connect 40 1 27 0;
#X connect 41 0 34 0;
#X connect 42 0 49 0;
#X connect 43 0 17 0;
#X connect 44 0 24 0;
#X connect 45 0 30 0;
#X connect 49 0 48 0;
#X connect 49 1 47 0;
#X connect 50 0 51 1;
#X connect 51 0 0 0;
#X connect 51 0 50 0;
#X connect 52 0 51 0;
#X connect 53 0 3 0;
#X connect 54 0 14 0;
#X connect 55 0 21 0;
#X connect 56 0 28 0;
#X connect 57 0 58 1;
#X connect 58 0 11 0;
#X connect 58 0 57 0;
#X connect 59 0 58 0;
#X connect 60 0 61 1;
#X connect 61 0 18 0;
#X connect 61 0 60 0;
#X connect 62 0 61 0;
#X connect 63 0 64 1;
#X connect 64 0 25 0;
#X connect 64 0 63 0;
#X connect 65 0 64 0;
#X connect 66 0 6 0;
#X connect 67 0 68 0;
#X connect 68 0 4 0;
#X connect 69 0 34 0;
#X connect 70 0 34 0;
