#N canvas 57 257 929 362 10;
#N canvas 0 0 450 300 (subpatch) 0;
#X array real 64 float 2;
#X coords 0 64 64 -64 256 200 1;
#X restore 266 65 graph;
#X floatatom 48 114 5 0 32 0 - - -;
#X obj 48 153 osc~;
#N canvas 0 0 450 300 (subpatch) 0;
#X array imaginary 64 float 2;
#X coords 0 64 64 -64 256 200 1;
#X restore 579 65 graph;
#X msg 48 -2 0;
#X msg 62 19 7000;
#X obj 125 53 t f b;
#X obj 145 78 samplerate~;
#X obj 125 100 *;
#X obj 48 242 tabsend~ real;
#X obj 68 218 tabsend~ imaginary;
#X obj 125 26 / 64;
#X msg 125 -5 10;
#X msg 166 -4 5;
#X msg 68 40 22100;
#X obj 47 192 fft~;
#X connect 1 0 2 0;
#X connect 2 0 15 0;
#X connect 4 0 1 0;
#X connect 5 0 1 0;
#X connect 6 0 8 0;
#X connect 6 1 7 0;
#X connect 7 0 8 1;
#X connect 8 0 1 0;
#X connect 11 0 6 0;
#X connect 12 0 11 0;
#X connect 13 0 11 0;
#X connect 14 0 1 0;
#X connect 15 0 9 0;
#X connect 15 1 10 0;
