#N canvas 45 0 856 673 10;
#X obj 25 253 random 100;
#X obj 25 302 bng 15 250 50 0 empty empty empty 17 7 0 10 -262144 -1
-1;
#X obj 70 301 bng 15 250 50 0 empty empty empty 17 7 0 10 -262144 -1
-1;
#X obj 25 132 bng 15 250 50 0 empty empty empty 17 7 0 10 -262144 -1
-1;
#X obj 58 132 tgl 15 0 empty empty empty 17 7 0 10 -262144 -1 -1 0
1;
#X obj 25 277 moses 70;
#X obj 81 181 bng 15 250 50 0 empty empty empty 17 7 0 10 -262144 -1
-1;
#X msg 25 324 1;
#X msg 70 324 -1;
#X obj 206 50 metro 300;
#X obj 206 24 tgl 15 0 empty empty empty 17 7 0 10 -262144 -1 -1 0
1;
#X obj 113 253 random 100;
#X obj 113 302 bng 15 250 50 0 empty empty empty 17 7 0 10 -262144
-1 -1;
#X obj 158 301 bng 15 250 50 0 empty empty empty 17 7 0 10 -262144
-1 -1;
#X obj 113 132 bng 15 250 50 0 empty empty empty 17 7 0 10 -262144
-1 -1;
#X obj 146 132 tgl 15 0 empty empty empty 17 7 0 10 -262144 -1 -1 0
1;
#X obj 113 277 moses 70;
#X obj 169 181 bng 15 250 50 0 empty empty empty 17 7 0 10 -262144
-1 -1;
#X obj 202 253 random 100;
#X obj 202 302 bng 15 250 50 0 empty empty empty 17 7 0 10 -262144
-1 -1;
#X obj 247 301 bng 15 250 50 0 empty empty empty 17 7 0 10 -262144
-1 -1;
#X obj 202 132 bng 15 250 50 0 empty empty empty 17 7 0 10 -262144
-1 -1;
#X obj 235 132 tgl 15 0 empty empty empty 17 7 0 10 -262144 -1 -1 0
1;
#X obj 202 277 moses 70;
#X obj 258 181 bng 15 250 50 0 empty empty empty 17 7 0 10 -262144
-1 -1;
#X obj 290 253 random 100;
#X obj 290 302 bng 15 250 50 0 empty empty empty 17 7 0 10 -262144
-1 -1;
#X obj 335 301 bng 15 250 50 0 empty empty empty 17 7 0 10 -262144
-1 -1;
#X obj 290 132 bng 15 250 50 0 empty empty empty 17 7 0 10 -262144
-1 -1;
#X obj 323 132 tgl 15 0 empty empty empty 17 7 0 10 -262144 -1 -1 1
1;
#X obj 346 181 bng 15 250 50 0 empty empty empty 17 7 0 10 -262144
-1 -1;
#X floatatom 257 23 5 0 0 0 - - -;
#X msg 91 459 60;
#X obj 91 429 loadbang;
#X obj 105 520 i;
#X obj 105 556 +;
#X msg 113 324 2;
#X msg 290 324 0;
#X msg 335 324 5;
#X obj 290 277 moses 80;
#X msg 247 324 3;
#X obj 156 26 bng 15 250 50 0 empty empty empty 17 7 0 10 -262144 -1
-1;
#X obj 113 157 spigot;
#X obj 202 157 spigot;
#X obj 290 157 spigot;
#X floatatom 316 601 5 0 0 0 - - -;
#X obj 223 77 s gate;
#X obj 156 77 s clock;
#X obj 156 51 t b b;
#X obj 70 205 tgl 15 0 empty empty empty 17 7 0 10 -262144 -1 -1 0
1;
#X obj 25 225 spigot 0;
#X obj 25 184 r clock;
#X obj 25 109 r gate;
#X obj 113 109 r gate;
#X obj 202 109 r gate;
#X obj 290 109 r gate;
#X obj 158 205 tgl 15 0 empty empty empty 17 7 0 10 -262144 -1 -1 0
1;
#X obj 113 225 spigot 0;
#X obj 113 184 r clock;
#X obj 247 205 tgl 15 0 empty empty empty 17 7 0 10 -262144 -1 -1 0
1;
#X obj 202 225 spigot 0;
#X obj 202 184 r clock;
#X obj 335 205 tgl 15 0 empty empty empty 17 7 0 10 -262144 -1 -1 0
1;
#X obj 290 225 spigot 0;
#X obj 290 184 r clock;
#X obj 25 157 spigot;
#X obj 78 67 loadbang;
#X msg 78 96 1;
#X msg 202 324 -5;
#X msg 158 324 -3;
#X msg 671 265 400;
#X floatatom 697 307 5 0 0 0 - - -;
#X obj 676 329 pack;
#X obj 676 358 t b l;
#X msg 540 467 1 40;
#X obj 586 397 bng 15 250 50 0 empty empty empty 17 7 0 10 -262144
-1 -1;
#X floatatom 601 418 5 0 0 0 - - -;
#X msg 586 467 0 100;
#X obj 703 383 line~;
#X obj 586 495 line~;
#X obj 702 546 *~;
#X obj 694 595 dac~;
#X obj 702 480 clip~ -1 1;
#X obj 703 406 phasor~;
#X floatatom 757 389 5 0 0 0 - - -;
#X msg 757 360 10;
#X obj 757 325 loadbang;
#X obj 601 252 loadbang;
#X msg 601 286 100;
#X obj 586 441 del;
#X obj 703 453 *~;
#X obj 757 416 / 10;
#X msg 700 265 500;
#X msg 735 265 600;
#X obj 382 603 mtof;
#X obj 222 436 f;
#X obj 258 437 + 1;
#X obj 222 412 bng 15 250 50 0 empty empty empty 17 7 0 10 -262144
-1 -1;
#X floatatom 258 463 5 0 0 0 - - -;
#X msg 266 394 0;
#X obj 258 487 sel 17;
#X obj 190 557 spigot;
#X obj 193 530 tgl 15 0 empty empty empty 17 7 0 10 -262144 -1 -1 1
1;
#X msg 262 552 0;
#X msg 308 560 1;
#X obj 258 517 t b b b;
#X msg 148 495 0;
#X obj 188 385 t b f b;
#X floatatom 170 601 5 0 0 0 - - -;
#X obj 413 151 sel 1;
#N canvas 217 34 671 514 scaler 0;
#X obj 69 196 mod 12;
#X floatatom 42 140 5 0 0 0 - - -;
#X obj 42 167 t f f;
#X obj 263 271 table major;
#X obj 263 297 table minor;
#X obj 300 146 tabwrite major;
#X obj 300 117 unpack;
#X obj 263 211 unpack;
#X obj 263 240 tabwrite minor;
#X floatatom 82 226 5 0 0 0 - - -;
#X floatatom 82 275 5 0 0 0 - - -;
#X obj 82 250 tabread major;
#X msg 300 74 0 0 \, 0 1 \, 2 2 \, 2 3 \, 4 4 \, 5 5 \, 5 6 \, 7 7
\, 7 8 \, 9 9 \, 9 10 \, 11 11;
#X msg 263 168 0 0 \, 0 1 \, 2 2 \, 3 3 \, 3 4 \, 5 5 \, 5 6 \, 7 7
\, 7 8 \, 9 9 \, 10 10 \, 10 11;
#X msg 150 193 set major;
#X msg 123 165 set minor;
#X obj 123 135 sel 1;
#X obj 123 103 tgl 15 0 empty empty empty 17 7 0 10 -262144 -1 -1 1
1;
#X obj 42 226 -;
#X obj 42 300 +;
#X floatatom 42 341 5 0 0 0 - - -;
#X obj 42 73 inlet;
#X obj 123 67 inlet;
#X obj 263 25 loadbang;
#X obj 42 378 outlet;
#X connect 0 0 18 1;
#X connect 0 0 9 0;
#X connect 1 0 2 0;
#X connect 2 0 18 0;
#X connect 2 1 0 0;
#X connect 6 0 5 0;
#X connect 6 1 5 1;
#X connect 7 0 8 0;
#X connect 7 1 8 1;
#X connect 9 0 11 0;
#X connect 10 0 19 1;
#X connect 11 0 10 0;
#X connect 12 0 6 0;
#X connect 13 0 7 0;
#X connect 14 0 11 0;
#X connect 15 0 11 0;
#X connect 16 0 15 0;
#X connect 16 1 14 0;
#X connect 17 0 16 0;
#X connect 18 0 19 0;
#X connect 19 0 20 0;
#X connect 20 0 24 0;
#X connect 21 0 1 0;
#X connect 22 0 17 0;
#X connect 23 0 12 0;
#X connect 23 0 13 0;
#X restore 358 566 pd scaler;
#X obj 404 520 tgl 15 0 empty empty empty 17 7 0 10 -262144 -1 -1 1
1;
#X connect 0 0 5 0;
#X connect 1 0 7 0;
#X connect 1 0 29 0;
#X connect 2 0 8 0;
#X connect 2 0 15 0;
#X connect 3 0 65 0;
#X connect 4 0 65 1;
#X connect 5 0 1 0;
#X connect 5 1 2 0;
#X connect 6 0 4 0;
#X connect 6 0 49 0;
#X connect 7 0 107 0;
#X connect 8 0 107 0;
#X connect 9 0 48 0;
#X connect 10 0 9 0;
#X connect 10 0 109 0;
#X connect 11 0 16 0;
#X connect 12 0 36 0;
#X connect 12 0 4 0;
#X connect 13 0 69 0;
#X connect 13 0 22 0;
#X connect 14 0 42 0;
#X connect 15 0 42 1;
#X connect 16 0 12 0;
#X connect 16 1 13 0;
#X connect 17 0 15 0;
#X connect 17 0 56 0;
#X connect 18 0 23 0;
#X connect 19 0 68 0;
#X connect 19 0 15 0;
#X connect 20 0 40 0;
#X connect 20 0 29 0;
#X connect 21 0 43 0;
#X connect 22 0 43 1;
#X connect 23 0 19 0;
#X connect 23 1 20 0;
#X connect 24 0 22 0;
#X connect 24 0 59 0;
#X connect 25 0 39 0;
#X connect 26 0 37 0;
#X connect 26 0 22 0;
#X connect 27 0 38 0;
#X connect 27 0 4 0;
#X connect 28 0 44 0;
#X connect 29 0 44 1;
#X connect 30 0 29 0;
#X connect 30 0 62 0;
#X connect 31 0 9 1;
#X connect 32 0 34 1;
#X connect 33 0 32 0;
#X connect 34 0 35 0;
#X connect 35 0 34 1;
#X connect 35 0 45 0;
#X connect 36 0 107 0;
#X connect 37 0 107 0;
#X connect 38 0 107 0;
#X connect 39 0 26 0;
#X connect 39 1 27 0;
#X connect 40 0 107 0;
#X connect 41 0 48 0;
#X connect 42 0 17 0;
#X connect 43 0 24 0;
#X connect 44 0 30 0;
#X connect 45 0 110 0;
#X connect 48 0 47 0;
#X connect 48 1 46 0;
#X connect 49 0 50 1;
#X connect 50 0 0 0;
#X connect 50 0 49 0;
#X connect 51 0 50 0;
#X connect 52 0 3 0;
#X connect 53 0 14 0;
#X connect 54 0 21 0;
#X connect 55 0 28 0;
#X connect 56 0 57 1;
#X connect 57 0 11 0;
#X connect 57 0 56 0;
#X connect 58 0 57 0;
#X connect 59 0 60 1;
#X connect 60 0 18 0;
#X connect 60 0 59 0;
#X connect 61 0 60 0;
#X connect 62 0 63 1;
#X connect 63 0 25 0;
#X connect 63 0 62 0;
#X connect 64 0 63 0;
#X connect 65 0 6 0;
#X connect 66 0 67 0;
#X connect 67 0 4 0;
#X connect 68 0 107 0;
#X connect 69 0 107 0;
#X connect 70 0 72 0;
#X connect 71 0 72 1;
#X connect 72 0 73 0;
#X connect 73 0 75 0;
#X connect 73 1 78 0;
#X connect 74 0 79 0;
#X connect 75 0 74 0;
#X connect 75 0 89 0;
#X connect 76 0 89 1;
#X connect 77 0 79 0;
#X connect 78 0 83 0;
#X connect 79 0 80 1;
#X connect 80 0 81 0;
#X connect 80 0 81 1;
#X connect 82 0 80 0;
#X connect 83 0 90 0;
#X connect 84 0 91 0;
#X connect 85 0 84 0;
#X connect 86 0 85 0;
#X connect 87 0 88 0;
#X connect 88 0 76 0;
#X connect 88 0 71 0;
#X connect 89 0 77 0;
#X connect 90 0 82 0;
#X connect 91 0 90 1;
#X connect 92 0 72 0;
#X connect 93 0 72 0;
#X connect 94 0 72 0;
#X connect 95 0 96 0;
#X connect 96 0 95 1;
#X connect 96 0 98 0;
#X connect 97 0 95 0;
#X connect 98 0 100 0;
#X connect 99 0 95 0;
#X connect 100 0 99 0;
#X connect 100 0 105 0;
#X connect 100 1 104 0;
#X connect 101 0 35 1;
#X connect 101 0 108 0;
#X connect 102 0 101 1;
#X connect 103 0 102 0;
#X connect 104 0 102 0;
#X connect 105 0 34 0;
#X connect 105 1 32 0;
#X connect 105 1 106 0;
#X connect 105 2 103 0;
#X connect 106 0 35 1;
#X connect 107 0 34 0;
#X connect 107 1 101 0;
#X connect 107 2 97 0;
#X connect 109 0 99 0;
#X connect 110 0 94 0;
#X connect 111 0 110 1;
