#N canvas 177 36 563 547 10;
#X obj 275 253 osc~;
#X obj 258 180 sig~;
#X obj 274 328 *~;
#X obj 258 355 +~;
#X obj 258 388 osc~;
#X obj 275 304 clip~ -1 1;
#X obj 118 290 vline~;
#X obj 118 324 *~;
#X obj 209 412 *~;
#X obj 231 141 t b f;
#X msg 118 261 0 0 \, 1 10 0 \, 0 800 10;
#X obj 195 455 dac~;
#X obj 275 224 *~;
#X obj 387 287 *~;
#X obj 275 277 *~ 1;
#X obj 263 93 unpack f f f f;
#X msg 149 37 700 3.3 2 1;
#X msg 256 37 750 3.3 2 10;
#X msg 356 38 1502 1.5 3 10;
#X connect 0 0 14 0;
#X connect 1 0 3 0;
#X connect 1 0 12 0;
#X connect 2 0 3 1;
#X connect 3 0 4 0;
#X connect 4 0 8 1;
#X connect 5 0 2 0;
#X connect 6 0 7 0;
#X connect 6 0 7 1;
#X connect 7 0 8 0;
#X connect 8 0 11 0;
#X connect 8 0 11 1;
#X connect 9 0 10 0;
#X connect 9 1 1 0;
#X connect 10 0 6 0;
#X connect 12 0 0 0;
#X connect 12 0 13 0;
#X connect 13 0 2 1;
#X connect 14 0 5 0;
#X connect 15 0 9 0;
#X connect 15 1 12 1;
#X connect 15 2 13 1;
#X connect 15 3 14 1;
#X connect 16 0 15 0;
#X connect 17 0 15 0;
#X connect 18 0 15 0;
