#N canvas 88 111 693 494 10;
#X obj 283 172 bng 15 250 50 0 empty empty empty 17 7 0 10 -262144
-1 -1;
#X obj 144 417 dac~;
#X obj 92 289 hats;
#X obj 333 15 tgl 15 0 empty empty empty 17 7 0 10 -262144 -1 -1 0
1;
#X obj 12 205 BangRand 30;
#X obj 93 205 BangRand 20;
#X obj 93 231 del 30;
#X obj 317 125 BangRand 10;
#X obj 317 151 del 40;
#X obj 235 127 BangRand 40;
#X obj 172 231 del 10;
#X obj 172 205 BangRand 10;
#X obj 93 164 bng 15 250 50 0 empty empty empty 17 7 0 10 -262144 -1
-1;
#X obj 281 97 bng 15 250 50 0 empty empty empty 17 7 0 10 -262144 -1
-1;
#X obj 92 267 bng 15 250 50 0 empty empty empty 17 7 0 10 -262144 -1
-1;
#X obj 143 267 bng 15 250 50 0 empty empty empty 17 7 0 10 -262144
-1 -1;
#X obj 412 390 *~ 0.3;
#X obj 555 391 *~ 0.5;
#X obj 555 414 delwrite~ delay2 4000;
#X obj 412 413 delwrite~ delay1 4000;
#X obj 451 325 line~;
#X msg 451 302 \$1 500;
#X obj 451 232 random 200;
#X obj 451 257 + 10;
#X obj 451 280 * 10;
#X obj 522 325 line~;
#X msg 522 302 \$1 500;
#X obj 522 280 * 10;
#X obj 522 232 random 300;
#X obj 522 257 + 100;
#X obj 540 109 tgl 15 0 empty empty empty 17 7 0 10 -262144 -1 -1 0
1;
#X obj 451 202 BangRand 10;
#X obj 540 145 metro 50;
#X obj 532 195 BangRand 4;
#X obj 290 276 *~ 1;
#X obj 371 324 *~ 0.6;
#X obj 555 368 vd~ delay2 2000;
#X obj 412 367 vd~ delay1 300;
#X obj 295 322 *~ 0.7;
#X obj 530 453 *~ 0.9;
#X obj 124 80 metro 500;
#X floatatom 389 277 5 0 0 0 - - -;
#X floatatom 596 314 5 0 0 0 - - -;
#X obj 283 200 blip;
#X connect 0 0 43 0;
#X connect 2 0 34 0;
#X connect 3 0 30 0;
#X connect 3 0 40 0;
#X connect 4 0 14 0;
#X connect 5 0 6 0;
#X connect 6 0 14 0;
#X connect 7 0 8 0;
#X connect 8 0 0 0;
#X connect 9 0 0 0;
#X connect 10 0 15 0;
#X connect 11 0 10 0;
#X connect 12 0 4 0;
#X connect 12 0 5 0;
#X connect 12 0 11 0;
#X connect 13 0 9 0;
#X connect 13 0 7 0;
#X connect 14 0 2 0;
#X connect 15 0 2 1;
#X connect 16 0 19 0;
#X connect 17 0 18 0;
#X connect 20 0 37 0;
#X connect 21 0 20 0;
#X connect 22 0 23 0;
#X connect 23 0 24 0;
#X connect 24 0 21 0;
#X connect 24 0 41 0;
#X connect 25 0 36 0;
#X connect 26 0 25 0;
#X connect 27 0 26 0;
#X connect 27 0 42 0;
#X connect 28 0 29 0;
#X connect 29 0 27 0;
#X connect 30 0 32 0;
#X connect 31 0 22 0;
#X connect 32 0 31 0;
#X connect 32 0 33 0;
#X connect 33 0 28 0;
#X connect 34 0 35 0;
#X connect 34 0 38 0;
#X connect 35 0 18 0;
#X connect 36 0 17 0;
#X connect 36 0 39 0;
#X connect 37 0 16 0;
#X connect 37 0 18 0;
#X connect 38 0 19 0;
#X connect 38 0 39 0;
#X connect 39 0 1 0;
#X connect 39 0 1 1;
#X connect 40 0 13 0;
#X connect 40 0 12 0;
#X connect 43 0 34 0;
