#N canvas 15 -18 1366 686 10;
#X obj 96 157 + 1;
#X obj 59 115 bng 15 250 50 0 empty empty empty 17 7 0 10 -262144 -1
-1;
#X obj 129 196 sel 32;
#X msg 107 117 0;
#X obj 65 40 tgl 15 0 empty empty empty 17 7 0 10 -262144 -1 -1 0 1
;
#X obj 110 72 sel 1;
#X obj 81 375 bng 15 250 50 0 empty empty empty 17 7 0 10 -262144 -1
-1;
#X obj 54 313 sel 1;
#X obj 77 418 kick;
#X obj 74 458 dac~;
#X obj 35 77 metro 100;
#X obj 59 146 f 0;
#N canvas 0 0 450 300 (subpatch) 0;
#X array timeprob1 6 float 3;
#A 0 0.0799962 0.399997 0.719997 0.409997 0.199996 1.04;
#X coords 0 1 6 0 100 100 1;
#X restore 991 251 graph;
#X obj 494 171 t b b;
#X msg 547 214 0;
#X obj 494 240 i;
#X obj 532 240 + 1;
#X obj 494 217 until;
#X obj 541 316 t b f;
#X obj 541 388 <;
#X obj 541 411 sel 1;
#X obj 494 437 i;
#X obj 494 263 t f f;
#X floatatom 494 463 5 0 0 0 - - -;
#X obj 494 487 sel 0 1 2 3 4 5;
#X obj 785 173 i;
#X msg 785 136 0;
#X obj 494 87 until;
#N canvas 0 0 450 300 (subpatch) 0;
#X array timeprob2 6 float 3;
#A 0 0.0499976 0.229998 0.400002 0.709996 0.139998 1.04;
#X coords 0 1 6 0 100 100 1;
#X restore 993 386 graph;
#X obj 494 117 t b b;
#X obj 494 148 bng 15 250 50 0 empty empty empty 17 7 0 10 -262144
-1 -1;
#X obj 494 62 t b b;
#X obj 690 598 > 31;
#X obj 690 621 sel 1;
#X msg 485 521 1;
#X msg 516 521 2;
#X msg 549 521 3;
#X msg 584 521 4;
#X msg 621 521 6;
#X msg 660 521 8;
#X obj 485 566 < 4;
#X obj 494 33 bng 15 250 50 0 empty empty empty 17 7 0 10 -262144 -1
-1;
#X msg 585 267 set timeprob\$1;
#X obj 660 569 +;
#X obj 585 242 + 1;
#X obj 541 292 tabread timeprob1;
#X obj 541 341 random 100;
#X obj 541 364 / 100;
#X msg 494 194 6;
#X obj 574 55 r mainstop;
#X obj 546 187 r intstop;
#X obj 585 217 r probfeedback;
#X obj 541 434 s intstop;
#X obj 485 596 s probfeedback;
#X obj 590 637 s feedback;
#X obj 690 649 s mainstop;
#X obj 818 135 r feedback;
#N canvas 0 0 450 300 (subpatch) 0;
#X array drumpattern 31 float 3;
#A 0 1 0 1 0 0 0 0 0 0 0 1 0 1 0 1 0 0 0 1 0 0 1 0 0 0 1 0 0 1 0 0
;
#X coords 0 2 31 -1 200 140 1;
#X restore 189 40 graph;
#X msg 743 67 \; drumpattern 0 0 0 0 0 0 0 0 0 0 0 0 0 0 0 0 0 0 0
0 0 0 0 0 0 0 0 0 0 0 0 0;
#X obj 806 276 tabwrite drumpattern;
#X obj 803 207 t b f;
#X msg 795 241 1;
#X obj 46 264 tabread drumpattern;
#X floatatom 71 191 5 0 0 0 - - -;
#X text 421 166 Inner loop start;
#X text 423 459 Inner loop end;
#X connect 0 0 11 1;
#X connect 1 0 11 0;
#X connect 2 0 3 0;
#X connect 3 0 11 1;
#X connect 4 0 5 0;
#X connect 4 0 10 0;
#X connect 5 0 3 0;
#X connect 6 0 8 0;
#X connect 7 0 6 0;
#X connect 8 0 9 0;
#X connect 8 0 9 1;
#X connect 10 0 1 0;
#X connect 11 0 0 0;
#X connect 11 0 62 0;
#X connect 11 0 63 0;
#X connect 11 0 2 0;
#X connect 13 0 48 0;
#X connect 13 1 14 0;
#X connect 14 0 15 1;
#X connect 15 0 16 0;
#X connect 15 0 22 0;
#X connect 16 0 15 1;
#X connect 17 0 15 0;
#X connect 18 0 46 0;
#X connect 18 1 19 1;
#X connect 19 0 20 0;
#X connect 20 0 21 0;
#X connect 20 0 52 0;
#X connect 21 0 23 0;
#X connect 22 0 45 0;
#X connect 22 1 21 1;
#X connect 23 0 24 0;
#X connect 24 0 34 0;
#X connect 24 1 35 0;
#X connect 24 2 36 0;
#X connect 24 3 37 0;
#X connect 24 4 38 0;
#X connect 24 5 39 0;
#X connect 25 0 43 1;
#X connect 25 0 60 0;
#X connect 26 0 25 1;
#X connect 27 0 29 0;
#X connect 29 0 30 0;
#X connect 29 1 25 0;
#X connect 30 0 13 0;
#X connect 31 0 27 0;
#X connect 31 1 26 0;
#X connect 31 1 58 0;
#X connect 32 0 33 0;
#X connect 33 0 55 0;
#X connect 34 0 40 0;
#X connect 34 0 43 0;
#X connect 35 0 40 0;
#X connect 35 0 43 0;
#X connect 36 0 40 0;
#X connect 36 0 43 0;
#X connect 37 0 40 0;
#X connect 37 0 43 0;
#X connect 38 0 40 0;
#X connect 38 0 43 0;
#X connect 39 0 40 0;
#X connect 39 0 43 0;
#X connect 40 0 53 0;
#X connect 41 0 31 0;
#X connect 42 0 45 0;
#X connect 43 0 32 0;
#X connect 43 0 54 0;
#X connect 44 0 42 0;
#X connect 45 0 18 0;
#X connect 46 0 47 0;
#X connect 47 0 19 0;
#X connect 48 0 17 0;
#X connect 49 0 27 1;
#X connect 50 0 17 1;
#X connect 51 0 44 0;
#X connect 56 0 25 1;
#X connect 60 0 61 0;
#X connect 60 1 59 1;
#X connect 61 0 59 0;
#X connect 62 0 7 0;
