#N canvas 637 163 450 300 10;
#X obj 171 143 osc~;
#X obj 47 59 phasor~;
#X obj 76 144 wrap~;
#X obj 48 173 -~;
#X obj 118 40 inlet~;
#X obj 75 117 +~;
#X obj 48 25 inlet~;
#X obj 48 264 outlet~;
#X obj 48 208 *~;
#X obj 195 63 inlet~;
#X connect 0 0 8 1;
#X connect 1 0 3 0;
#X connect 1 0 5 0;
#X connect 2 0 3 1;
#X connect 3 0 8 0;
#X connect 4 0 5 1;
#X connect 5 0 2 0;
#X connect 6 0 1 0;
#X connect 8 0 7 0;
#X connect 9 0 0 0;
