#N canvas 343 66 820 570 10;
#X obj 188 240 osc~;
#X obj 188 213 *~;
#X obj 217 153 sig~;
#X obj 166 181 +~;
#X obj 167 298 +~;
#X obj 188 266 *~;
#X obj 166 332 osc~;
#X floatatom 217 131 5 0 0 0 - mainfreq -;
#X obj 105 392 dac~;
#X floatatom 286 182 5 0 0 0 - fmratio -;
#X floatatom 288 214 5 0 0 0 - fmamount -;
#X obj 110 366 *~;
#X obj 91 319 tgl 15 0 empty empty empty 17 7 0 10 -262144 -1 -1 1
1;
#X obj 237 238 *~;
#X floatatom 53 339 5 0 0 0 - - -;
#X obj 167 121 *~;
#X obj 71 62 tgl 15 0 empty empty empty 17 7 0 10 -262144 -1 -1 1 1
;
#X obj 166 408 delwrite~ delay1 5000;
#X obj 186 86 delread~ delay1 5000;
#X text 93 60 Feedback On/Off;
#X text 329 186 FM ratio;
#X text 327 214 FM amount;
#X text 255 126 Main Frequency;
#X floatatom 199 51 5 0 0 0 - delaytime -;
#X text 248 52 Delay Time;
#X msg 499 358 \; mainfreq 200 \; feedmult 100 \; fmratio 0 \; fmamount
0 \; delaytime 5000;
#X msg 629 148 \; mainfreq 200 \; feedmult 100 \; fmratio 3 \; fmamount
0.5 \; delaytime 5000;
#X msg 626 242 \; mainfreq 500 \; feedmult 200 \; fmratio 7.2 \; fmamount
0.9 \; delaytime 5000;
#X msg 496 151 \; mainfreq 1037 \; feedmult 100 \; fmratio 7.21 \;
fmamount 0.9 \; delaytime 2579;
#X obj 167 372 *~ 200;
#X floatatom 210 348 5 0 0 0 - feedmult -;
#X text 245 347 Feedback Multiplier;
#X msg 499 258 \; mainfreq 600 \; feedmult 100 \; fmratio 7.21 \; fmamount
0.9 \; delaytime 2579;
#X msg 632 340 \; mainfreq 500 \; feedmult 200 \; fmratio 7.2 \; fmamount
0.9 \; delaytime 100;
#X connect 0 0 5 0;
#X connect 1 0 0 0;
#X connect 1 0 13 0;
#X connect 2 0 3 1;
#X connect 3 0 1 0;
#X connect 3 0 4 0;
#X connect 4 0 6 0;
#X connect 5 0 4 1;
#X connect 6 0 11 1;
#X connect 6 0 29 0;
#X connect 7 0 2 0;
#X connect 9 0 1 1;
#X connect 10 0 13 1;
#X connect 11 0 8 0;
#X connect 11 0 8 1;
#X connect 12 0 11 0;
#X connect 13 0 5 1;
#X connect 14 0 11 0;
#X connect 15 0 3 0;
#X connect 16 0 15 0;
#X connect 18 0 15 1;
#X connect 23 0 18 0;
#X connect 29 0 17 0;
#X connect 30 0 29 1;
