#N canvas 304 63 664 610 10;
#X obj 76 185 soundfiler;
#X obj 76 46 inlet;
#X obj 76 237 s \$0_len;
#X floatatom 76 211 10 0 0 0 - - -;
#X obj 341 138 r \$0_len;
#X obj 326 182 i;
#X floatatom 415 161 5 0 1e+006 0 - - -;
#X obj 326 271 t f f;
#X obj 353 294 / 44.1;
#X floatatom 524 263 5 0 0 0 - - -;
#X obj 353 321 / 1;
#X obj 326 346 pack;
#X obj 293 147 t b b;
#X floatatom 465 160 5 0 0 0 - - -;
#X obj 450 410 line;
#X obj 326 373 t l l;
#X obj 326 401 line~;
#X obj 250 244 s \$0_reset;
#X obj 450 487 bng 15 250 50 0 empty empty empty 17 7 0 10 -262144
-1 -1;
#X obj 450 433 ==;
#X obj 326 454 outlet~;
#X obj 450 540 s \$0_loop;
#X obj 293 120 bng 15 250 50 0 empty empty empty 17 7 0 10 -262144
-1 -1;
#X obj 608 311 tgl 15 0 empty empty empty 17 7 0 10 -262144 -1 -1 0
1;
#X obj 338 93 r \$0_loop;
#X obj 274 40 inlet;
#X obj 415 131 inlet;
#X obj 465 131 inlet;
#X text 387 114 start offset;
#X text 473 112 end offset;
#X text 273 17 play;
#X text 74 24 filename;
#X obj 524 236 inlet;
#X text 522 212 speed;
#X obj 608 284 inlet;
#X obj 450 513 spigot 0;
#X text 605 261 loop;
#X obj 326 244 +;
#X obj 250 217 i;
#X obj 274 66 tgl 15 0 empty empty empty 17 7 0 10 -262144 -1 -1 0
1;
#X obj 274 88 sel 0 1;
#X obj 411 369 r \$0_reset;
#X msg 162 54 amen.wav;
#X obj 76 109 list prepend read -resize;
#X obj 76 160 route list;
#X obj 450 459 sel 1;
#X msg 489 410 \$1;
#X obj 326 210 -;
#X obj 76 134 list append \$0_bank;
#X obj 76 272 table \$0_bank;
#X obj 326 427 tabread4~ \$0_bank;
#X connect 0 0 3 0;
#X connect 1 0 43 0;
#X connect 3 0 2 0;
#X connect 4 0 5 1;
#X connect 5 0 47 0;
#X connect 6 0 38 1;
#X connect 6 0 47 1;
#X connect 7 0 11 0;
#X connect 7 1 8 0;
#X connect 8 0 10 0;
#X connect 9 0 10 1;
#X connect 10 0 11 1;
#X connect 11 0 15 0;
#X connect 12 0 5 0;
#X connect 12 1 38 0;
#X connect 13 0 37 1;
#X connect 14 0 19 0;
#X connect 15 0 16 0;
#X connect 15 0 14 0;
#X connect 15 1 46 0;
#X connect 16 0 50 0;
#X connect 18 0 35 0;
#X connect 19 0 45 0;
#X connect 22 0 12 0;
#X connect 23 0 35 1;
#X connect 24 0 22 0;
#X connect 25 0 39 0;
#X connect 26 0 6 0;
#X connect 27 0 13 0;
#X connect 32 0 9 0;
#X connect 34 0 23 0;
#X connect 35 0 21 0;
#X connect 37 0 7 0;
#X connect 38 0 17 0;
#X connect 39 0 40 0;
#X connect 40 0 38 0;
#X connect 40 1 22 0;
#X connect 41 0 16 0;
#X connect 41 0 14 0;
#X connect 42 0 43 0;
#X connect 43 0 48 0;
#X connect 44 0 0 0;
#X connect 45 0 18 0;
#X connect 46 0 19 1;
#X connect 47 0 37 0;
#X connect 48 0 44 0;
#X connect 50 0 20 0;
