#N canvas 200 50 830 563 10;
#X obj 294 244 noise~;
#X obj 178 334 delwrite~ stringtest 40;
#X obj 100 330 *~ 0.9;
#X obj 294 278 *~ 0;
#X obj 231 150 t f b;
#X obj 177 208 sig~;
#X obj 360 212 bng 15 250 50 0 empty empty empty 17 7 0 10 -262144
-1 -1;
#X msg 359 249 1;
#X msg 405 247 0;
#X obj 99 386 dac~;
#X obj 178 275 lop~ 3000;
#X obj 177 237 vd~ stringtest 10;
#X msg 141 97 10;
#X msg 179 99 9;
#X msg 213 100 8;
#X obj 178 302 *~ 0.99;
#X obj 393 209 del 30;
#X floatatom 426 168 5 0 0 0 - - -;
#X msg 247 99 7.5;
#X msg 326 98 6;
#X msg 286 98 6.75;
#X msg 369 97 5.3;
#X msg 411 98 5;
#X floatatom 239 196 5 0 0 0 - - -;
#X floatatom 92 208 5 1 100 0 - - -;
#X obj 98 237 / 100;
#X connect 0 0 3 0;
#X connect 2 0 9 0;
#X connect 2 0 9 1;
#X connect 3 0 1 0;
#X connect 4 0 5 0;
#X connect 4 1 6 0;
#X connect 4 1 16 0;
#X connect 5 0 11 0;
#X connect 6 0 7 0;
#X connect 7 0 3 1;
#X connect 8 0 3 1;
#X connect 10 0 15 0;
#X connect 10 0 2 0;
#X connect 11 0 10 0;
#X connect 12 0 4 0;
#X connect 13 0 4 0;
#X connect 14 0 4 0;
#X connect 15 0 1 0;
#X connect 16 0 8 0;
#X connect 17 0 16 1;
#X connect 18 0 4 0;
#X connect 19 0 4 0;
#X connect 20 0 4 0;
#X connect 21 0 4 0;
#X connect 22 0 4 0;
#X connect 23 0 10 1;
#X connect 24 0 25 0;
#X connect 25 0 15 1;
