#N canvas -145 6 1366 686 10;
#X obj 96 157 + 1;
#X obj 59 115 bng 15 250 50 0 empty empty empty 17 7 0 10 -262144 -1
-1;
#X obj 129 196 sel 32;
#X msg 107 117 0;
#X obj 65 40 tgl 15 0 empty empty empty 17 7 0 10 -262144 -1 -1 0 1
;
#X obj 110 72 sel 1;
#X obj 46 313 bng 15 250 50 0 empty empty empty 17 7 0 10 -262144 -1
-1;
#X obj 46 288 sel 1;
#X obj 67 378 kick;
#X obj 74 458 dac~;
#X obj 35 77 metro 100;
#X obj 59 146 f 0;
#X obj 873 68 bng 15 250 50 0 empty empty empty 17 7 0 10 -262144 -1
-1;
#N canvas 0 0 450 300 (subpatch) 0;
#X array kickpattern 31 float 3;
#A 0 1 0 0 0 1 0 0 1 0 0 0 1 0 1 0 0 0 1 0 1 0 1 0 0 0 1 0 0 1 0 0
;
#X coords 0 2 31 -1 200 140 1;
#X restore 422 38 graph;
#X floatatom 71 191 5 0 0 0 - - -;
#X obj 46 264 tabread kickpattern;
#N canvas 0 0 790 670 kickgen 0;
#N canvas 0 0 450 300 (subpatch) 0;
#X array timeprob1 6 float 3;
#A 0 0.0799962 0.399997 0.719997 0.409997 0.199996 1.04;
#X coords 0 1 6 0 100 100 1;
#X restore 574 236 graph;
#X obj 77 156 t b b;
#X msg 130 199 0;
#X obj 77 225 i;
#X obj 115 225 + 1;
#X obj 77 202 until;
#X obj 124 301 t b f;
#X obj 124 373 <;
#X obj 124 396 sel 1;
#X obj 77 422 i;
#X obj 77 248 t f f;
#X floatatom 77 448 5 0 0 0 - - -;
#X obj 77 472 sel 0 1 2 3 4 5;
#X obj 368 158 i;
#X msg 368 121 0;
#X obj 77 72 until;
#N canvas 0 0 450 300 (subpatch) 0;
#X array timeprob2 6 float 3;
#A 0 0.0499976 0.229998 0.400002 0.709996 0.139998 1.04;
#X coords 0 1 6 0 100 100 1;
#X restore 576 371 graph;
#X obj 77 133 bng 15 250 50 0 empty empty empty 17 7 0 10 -262144 -1
-1;
#X obj 77 47 t b b;
#X obj 273 583 > 31;
#X obj 273 606 sel 1;
#X msg 68 506 1;
#X msg 99 506 2;
#X msg 132 506 3;
#X msg 167 506 4;
#X msg 204 506 6;
#X msg 243 506 8;
#X obj 68 551 < 4;
#X msg 168 252 set timeprob\$1;
#X obj 243 554 +;
#X obj 168 227 + 1;
#X obj 124 277 tabread timeprob1;
#X obj 124 326 random 100;
#X obj 124 349 / 100;
#X msg 77 179 6;
#X obj 157 40 r mainstop;
#X obj 129 172 r intstop;
#X obj 168 202 r probfeedback;
#X obj 124 419 s intstop;
#X obj 68 581 s probfeedback;
#X obj 173 622 s feedback;
#X obj 273 634 s mainstop;
#X obj 401 120 r feedback;
#X text 4 151 Inner loop start;
#X text 6 444 Inner loop end;
#X obj 77 12 inlet;
#X obj 385 192 outlet;
#X obj 77 102 t b b b;
#X connect 1 0 34 0;
#X connect 1 1 2 0;
#X connect 2 0 3 1;
#X connect 3 0 4 0;
#X connect 3 0 10 0;
#X connect 4 0 3 1;
#X connect 5 0 3 0;
#X connect 6 0 32 0;
#X connect 6 1 7 1;
#X connect 7 0 8 0;
#X connect 8 0 9 0;
#X connect 8 0 38 0;
#X connect 9 0 11 0;
#X connect 10 0 31 0;
#X connect 10 1 9 1;
#X connect 11 0 12 0;
#X connect 12 0 21 0;
#X connect 12 1 22 0;
#X connect 12 2 23 0;
#X connect 12 3 24 0;
#X connect 12 4 25 0;
#X connect 12 5 26 0;
#X connect 13 0 29 1;
#X connect 13 0 46 0;
#X connect 14 0 13 1;
#X connect 15 0 47 0;
#X connect 17 0 1 0;
#X connect 18 0 15 0;
#X connect 18 1 14 0;
#X connect 19 0 20 0;
#X connect 20 0 41 0;
#X connect 21 0 27 0;
#X connect 21 0 29 0;
#X connect 22 0 27 0;
#X connect 22 0 29 0;
#X connect 23 0 27 0;
#X connect 23 0 29 0;
#X connect 24 0 27 0;
#X connect 24 0 29 0;
#X connect 25 0 27 0;
#X connect 25 0 29 0;
#X connect 26 0 27 0;
#X connect 26 0 29 0;
#X connect 27 0 39 0;
#X connect 28 0 31 0;
#X connect 29 0 19 0;
#X connect 29 0 40 0;
#X connect 30 0 28 0;
#X connect 31 0 6 0;
#X connect 32 0 33 0;
#X connect 33 0 7 0;
#X connect 34 0 5 0;
#X connect 35 0 15 1;
#X connect 36 0 5 1;
#X connect 37 0 30 0;
#X connect 42 0 13 1;
#X connect 45 0 18 0;
#X connect 47 0 17 0;
#X connect 47 1 13 0;
#X restore 939 153 pd kickgen;
#X obj 1012 324 t b f;
#X msg 1012 352 1;
#X obj 1012 388 tabwrite kickpattern;
#X obj 1113 229 t b f;
#N canvas 0 0 450 300 (subpatch) 0;
#X array snarepattern 31 float 3;
#A 0 0 0 0 0 1 0 0 0 1 0 0 0 0 0 0 0 0 0 0 0 0 0 1 0 1 0 0 0 0 1 1
;
#X coords 0 2 31 -1 200 140 1;
#X restore 421 220 graph;
#X msg 1113 253 0.1;
#X obj 1113 277 pack;
#X obj 1140 253 + 2;
#X obj 1173 229 t b f;
#X obj 1173 277 pack;
#X obj 1235 229 t b f;
#X obj 1235 277 pack;
#X msg 1173 253 0.4;
#X msg 1235 253 0.3;
#X obj 1200 253 + 4;
#X obj 1262 253 + 5;
#X obj 1113 195 i;
#X obj 1113 304 unpack;
#X obj 1113 330 tabwrite snarechance;
#N canvas 0 5 736 427 cleartabs 0;
#X obj 183 71 inlet;
#X msg 193 102 \; kickpattern 0 0 0 0 0 0 0 0 0 0 0 0 0 0 0 0 0 0 0
0 0 0 0 0 0 0 0 0 0 0 0 0 \; snarepattern 0 0 0 0 0 0 0 0 0 0 0 0 0
0 0 0 0 0 0 0 0 0 0 0 0 0 0 0 0 0 0 0 \; snarechance 0 0 0 0 0 0 0
0 0 0 0 0 0 0 0 0 0 0 0 0 0 0 0 0 0 0 0 0 0 0 0 0;
#X connect 0 0 1 0;
#X restore 975 127 pd cleartabs;
#N canvas 479 54 577 496 snaregen 0;
#X obj 108 124 t b b;
#X msg 161 167 0;
#X obj 108 193 i;
#X obj 146 193 + 1;
#X obj 108 170 until;
#X obj 108 266 t b f;
#X obj 108 338 <;
#X obj 108 216 t f f;
#X obj 108 101 bng 15 250 50 0 empty empty empty 17 7 0 10 -262144
-1 -1;
#X obj 108 291 random 100;
#X obj 108 314 / 100;
#X obj 108 69 inlet;
#X msg 108 147 32;
#X obj 108 242 tabread snarechance;
#X obj 108 365 pack;
#X obj 108 390 outlet;
#N canvas 0 0 450 300 (subpatch) 0;
#X array snarechance 31 float 3;
#A 0 0 0 0.1 0 0.4 0.3 0.1 0 0.4 0.1 0 0.4 0.3 0.1 0 0.1 0.3 0.4 0.3
0.1 0 0.1 0.3 0.1 0.3 0.4 0.3 0.1 0 0.4 0.3;
#X coords 0 2 31 -1 200 140 1;
#X restore 275 161 graph;
#X connect 0 0 12 0;
#X connect 0 1 1 0;
#X connect 1 0 2 1;
#X connect 2 0 3 0;
#X connect 2 0 7 0;
#X connect 3 0 2 1;
#X connect 4 0 2 0;
#X connect 5 0 9 0;
#X connect 5 1 6 1;
#X connect 6 0 14 0;
#X connect 7 0 13 0;
#X connect 7 1 14 1;
#X connect 8 0 0 0;
#X connect 9 0 10 0;
#X connect 10 0 6 0;
#X connect 11 0 8 0;
#X connect 12 0 4 0;
#X connect 13 0 5 0;
#X connect 14 0 15 0;
#X restore 709 281 pd snaregen;
#X obj 709 309 unpack;
#X obj 709 335 tabwrite snarepattern;
#X obj 121 357 bng 15 250 50 0 empty empty empty 17 7 0 10 -262144
-1 -1;
#X obj 121 332 sel 1;
#X obj 121 308 tabread snarepattern;
#X obj 116 398 snare;
#X obj 873 100 t b b b b;
#X obj 867 317 t b f;
#X msg 867 345 0;
#X obj 867 381 tabwrite hatchance;
#X obj 649 435 tabwrite hatchance;
#X obj 649 351 unpack;
#X msg 649 410 0;
#X obj 649 379 sel 1;
#X obj 640 160 unpack;
#N canvas 254 33 577 496 hatgen 0;
#X obj 108 124 t b b;
#X msg 161 167 0;
#X obj 108 193 i;
#X obj 146 193 + 1;
#X obj 108 170 until;
#X obj 108 266 t b f;
#X obj 108 338 <;
#X obj 108 216 t f f;
#X obj 108 101 bng 15 250 50 0 empty empty empty 17 7 0 10 -262144
-1 -1;
#X obj 108 291 random 100;
#X obj 108 314 / 100;
#X obj 108 69 inlet;
#X msg 108 147 32;
#X obj 108 365 pack;
#X obj 108 390 outlet;
#X obj 108 242 tabread hatchance;
#X connect 0 0 12 0;
#X connect 0 1 1 0;
#X connect 1 0 2 1;
#X connect 2 0 3 0;
#X connect 2 0 7 0;
#X connect 3 0 2 1;
#X connect 4 0 2 0;
#X connect 5 0 9 0;
#X connect 5 1 6 1;
#X connect 6 0 13 0;
#X connect 7 0 15 0;
#X connect 7 1 13 1;
#X connect 8 0 0 0;
#X connect 9 0 10 0;
#X connect 10 0 6 0;
#X connect 11 0 8 0;
#X connect 12 0 4 0;
#X connect 13 0 14 0;
#X connect 15 0 5 0;
#X restore 640 132 pd hatgen;
#N canvas 0 0 450 300 (subpatch) 0;
#X array hatpattern 31 float 3;
#A 0 0 0 1 0 0 1 1 0 0 1 1 0 1 0 0 0 0 0 1 0 1 0 0 1 0 0 1 0 0 0 0
;
#X coords 0 2 31 -1 200 140 1;
#X restore 419 409 graph;
#X obj 640 186 tabwrite hatpattern;
#X obj 256 427 hats;
#X obj 256 348 bng 15 250 50 0 empty empty empty 17 7 0 10 -262144
-1 -1;
#X obj 256 323 sel 1;
#X obj 256 299 tabread hatpattern;
#X obj 256 372 random 100;
#X obj 256 397 moses 70;
#X msg 938 36 \; hatchance 0.5 0.7 0.5 0.7 0.5 0.7 0.5 0.7 0.5 0.7
0.5 0.7 0.5 0.7 0.5 0.7 0.5 0.7 0.5 0.7 0.5 0.7 0.5 0.7 0.5 0.7 0.5
0.7 0.5 0.7 0.5 0.7;
#N canvas 0 0 450 300 (subpatch) 0;
#X array hatchance 31 float 3;
#A 0 0 0.5 0.7 0.5 0 0.5 0.7 0 0 0.5 0.7 0 0.7 0 0.7 0.5 0.7 0 0.7
0 0.7 0 0 0.5 0 0 0.7 0.5 0 0 0;
#X coords 0 2 31 -1 200 140 1;
#X restore 666 494 graph;
#X connect 0 0 11 1;
#X connect 1 0 11 0;
#X connect 2 0 3 0;
#X connect 3 0 11 1;
#X connect 4 0 5 0;
#X connect 4 0 10 0;
#X connect 5 0 3 0;
#X connect 6 0 8 0;
#X connect 7 0 6 0;
#X connect 8 0 9 0;
#X connect 8 0 9 1;
#X connect 10 0 1 0;
#X connect 11 0 0 0;
#X connect 11 0 14 0;
#X connect 11 0 2 0;
#X connect 12 0 44 0;
#X connect 14 0 15 0;
#X connect 14 0 42 0;
#X connect 14 0 59 0;
#X connect 15 0 7 0;
#X connect 16 0 17 0;
#X connect 16 0 33 0;
#X connect 16 0 45 0;
#X connect 17 0 18 0;
#X connect 17 1 19 1;
#X connect 18 0 19 0;
#X connect 20 0 22 0;
#X connect 20 1 24 0;
#X connect 22 0 23 0;
#X connect 23 0 34 0;
#X connect 24 0 23 1;
#X connect 25 0 29 0;
#X connect 25 1 31 0;
#X connect 26 0 34 0;
#X connect 27 0 30 0;
#X connect 27 1 32 0;
#X connect 28 0 34 0;
#X connect 29 0 26 0;
#X connect 30 0 28 0;
#X connect 31 0 26 1;
#X connect 32 0 28 1;
#X connect 33 0 20 0;
#X connect 33 0 25 0;
#X connect 33 0 27 0;
#X connect 34 0 35 0;
#X connect 34 1 35 1;
#X connect 37 0 38 0;
#X connect 37 0 49 0;
#X connect 38 0 39 0;
#X connect 38 1 39 1;
#X connect 40 0 43 0;
#X connect 41 0 40 0;
#X connect 42 0 41 0;
#X connect 43 0 9 0;
#X connect 43 0 9 1;
#X connect 44 0 53 0;
#X connect 44 1 37 0;
#X connect 44 2 16 0;
#X connect 44 3 36 0;
#X connect 44 3 62 0;
#X connect 45 0 46 0;
#X connect 45 1 47 1;
#X connect 46 0 47 0;
#X connect 49 0 51 0;
#X connect 49 1 48 1;
#X connect 50 0 48 0;
#X connect 51 0 50 0;
#X connect 52 0 55 0;
#X connect 52 1 55 1;
#X connect 53 0 52 0;
#X connect 56 0 9 1;
#X connect 56 0 9 0;
#X connect 57 0 60 0;
#X connect 58 0 57 0;
#X connect 59 0 58 0;
#X connect 60 0 61 0;
#X connect 61 0 56 0;
#X connect 61 1 56 1;
