#N canvas 134 29 807 508 10;
#X obj 268 262 noise~;
#X obj 121 195 vline~;
#X obj 122 224 *~;
#X obj 123 331 *~;
#X obj 222 66 bng 15 250 50 0 empty empty empty 17 7 0 10 -262144 -1
-1;
#X msg 121 160 0 0 \, 1 10 0 \, 0 100 10;
#X obj 418 130 bng 15 250 50 0 empty empty empty 17 7 0 10 -262144
-1 -1;
#X msg 455 187 0 300;
#X msg 418 187 1 10;
#X obj 455 165 del 10;
#X obj 418 214 line;
#X obj 418 240 *;
#X obj 418 291 + 1000;
#X obj 180 310 bp~ 4300 2;
#X obj 418 266 * 3000;
#X obj 99 393 outlet~;
#X obj 218 26 inlet;
#X connect 0 0 13 0;
#X connect 1 0 2 0;
#X connect 1 0 2 1;
#X connect 2 0 3 0;
#X connect 3 0 15 0;
#X connect 4 0 6 0;
#X connect 4 0 5 0;
#X connect 5 0 1 0;
#X connect 6 0 8 0;
#X connect 6 0 9 0;
#X connect 7 0 10 0;
#X connect 8 0 10 0;
#X connect 9 0 7 0;
#X connect 10 0 11 1;
#X connect 10 0 11 0;
#X connect 11 0 14 0;
#X connect 12 0 13 1;
#X connect 13 0 3 1;
#X connect 14 0 12 0;
#X connect 16 0 4 0;
