#N canvas 415 117 548 467 10;
#X obj 221 92 noise~;
#X obj 205 121 snapshot~;
#X obj 205 75 bng 15 250 50 0 empty empty empty 17 7 0 10 -262144 -1
-1;
#X floatatom 205 250 5 0 0 0 - - -;
#X obj 205 142 + 1;
#X obj 205 166 / 2;
#X obj 205 188 * 1;
#X floatatom 333 82 5 0 0 0 max_Freq - -;
#X floatatom 365 108 5 0 0 0 min_Freq - -;
#X obj 334 155 -;
#X obj 205 213 + 1;
#X obj 27 230 noise~;
#X obj 320 130 bng 15 250 50 0 empty empty empty 17 7 0 10 -262144
-1 -1;
#X obj 141 285 line~;
#X msg 141 259 \$1 \$2;
#X obj 141 234 pack;
#X floatatom 162 206 5 0 0 0 glide_time - -;
#X floatatom 203 310 5 0 0 0 resonance - -;
#X obj 103 334 vcf~ 1;
#X obj 101 421 dac~;
#X obj 155 343 tgl 15 0 empty empty empty 17 7 0 10 -262144 -1 -1 1
1;
#X obj 102 375 *~ 1;
#X obj 390 22 loadbang;
#X msg 333 56 1000;
#X msg 376 65 300;
#X obj 205 49 metro 250;
#X obj 205 27 tgl 15 0 empty empty empty 17 7 0 10 -262144 -1 -1 1
1;
#X connect 0 0 1 0;
#X connect 1 0 4 0;
#X connect 2 0 1 0;
#X connect 4 0 5 0;
#X connect 5 0 6 0;
#X connect 6 0 10 0;
#X connect 7 0 9 0;
#X connect 8 0 9 1;
#X connect 8 0 10 1;
#X connect 8 0 12 0;
#X connect 9 0 6 1;
#X connect 10 0 3 0;
#X connect 10 0 15 0;
#X connect 11 0 18 0;
#X connect 12 0 9 0;
#X connect 13 0 18 1;
#X connect 14 0 13 0;
#X connect 15 0 14 0;
#X connect 16 0 15 1;
#X connect 17 0 18 2;
#X connect 18 0 21 0;
#X connect 20 0 21 1;
#X connect 21 0 19 0;
#X connect 21 0 19 1;
#X connect 22 0 23 0;
#X connect 22 0 24 0;
#X connect 23 0 7 0;
#X connect 24 0 8 0;
#X connect 25 0 2 0;
#X connect 26 0 25 0;
