#N canvas 204 34 693 523 10;
#X obj 157 17 tgl 15 0 empty empty empty 17 7 0 10 -262144 -1 -1 0
1;
#X floatatom 208 12 5 0 0 0 - - -;
#X obj 157 156 f;
#X obj 189 155 + 1;
#X floatatom 157 181 5 0 0 0 - - -;
#X msg 249 126 1;
#X obj 249 86 sel 1;
#X obj 157 65 t f f;
#X obj 195 118 sel 32;
#X obj 23 225 sel 1 9 17 25;
#X obj 308 226 mod 8;
#X obj 308 253 sel 1 3 5 7;
#X obj 55 262 BangRand 70;
#X obj 23 366 bng 15 250 50 0 empty empty empty 17 7 0 10 -262144 -1
-1;
#X obj 177 257 BangRand 70;
#X obj 157 362 bng 15 250 50 0 empty empty empty 17 7 0 10 -262144
-1 -1;
#X obj 308 340 bng 15 250 50 0 empty empty empty 17 7 0 10 -262144
-1 -1;
#X obj 337 304 BangRand 50;
#X obj 370 341 bng 15 250 50 0 empty empty empty 17 7 0 10 -262144
-1 -1;
#X obj 444 222 sel 8 14 22 30;
#X obj 157 224 sel 5 13 21 29;
#X obj 194 283 BangRand 20;
#X obj 213 333 spigot;
#X obj 246 310 tgl 15 0 empty empty empty 17 7 0 10 -262144 -1 -1 0
1;
#X obj 213 360 bng 15 250 50 0 empty empty empty 17 7 0 10 -262144
-1 -1;
#X obj 85 306 spigot;
#X obj 118 285 tgl 15 0 empty empty empty 17 7 0 10 -262144 -1 -1 1
1;
#X obj 85 329 bng 15 250 50 0 empty empty empty 17 7 0 10 -262144 -1
-1;
#X obj 444 366 bng 15 250 50 0 empty empty empty 17 7 0 10 -262144
-1 -1;
#X obj 481 308 bng 15 250 50 0 empty empty empty 17 7 0 10 -262144
-1 -1;
#X obj 481 332 del 100;
#X obj 444 256 BangRand 30;
#X obj 481 283 BangRand 20;
#X obj 23 399 kick;
#X obj 157 392 snare;
#X obj 258 471 dac~;
#X obj 444 403 blip;
#X obj 308 382 hats;
#X obj 157 93 metro 130;
#X connect 0 0 7 0;
#X connect 1 0 38 1;
#X connect 2 0 3 0;
#X connect 2 0 4 0;
#X connect 2 0 8 0;
#X connect 3 0 2 1;
#X connect 4 0 9 0;
#X connect 4 0 10 0;
#X connect 4 0 19 0;
#X connect 4 0 20 0;
#X connect 5 0 2 1;
#X connect 6 0 5 0;
#X connect 7 0 38 0;
#X connect 7 1 6 0;
#X connect 8 0 5 0;
#X connect 9 0 13 0;
#X connect 9 1 12 0;
#X connect 9 2 13 0;
#X connect 9 3 12 0;
#X connect 9 4 25 0;
#X connect 10 0 11 0;
#X connect 11 0 16 0;
#X connect 11 1 17 0;
#X connect 11 2 16 0;
#X connect 11 3 17 0;
#X connect 12 0 13 0;
#X connect 12 1 26 0;
#X connect 13 0 33 0;
#X connect 14 0 15 0;
#X connect 15 0 34 0;
#X connect 16 0 37 0;
#X connect 17 0 16 0;
#X connect 17 1 18 0;
#X connect 18 0 37 1;
#X connect 19 0 31 0;
#X connect 19 1 31 0;
#X connect 19 2 31 0;
#X connect 19 3 31 0;
#X connect 20 0 15 0;
#X connect 20 1 14 0;
#X connect 20 2 15 0;
#X connect 20 3 21 0;
#X connect 20 4 22 0;
#X connect 21 0 15 0;
#X connect 21 1 23 0;
#X connect 22 0 24 0;
#X connect 23 0 22 1;
#X connect 24 0 23 0;
#X connect 24 0 15 0;
#X connect 25 0 27 0;
#X connect 26 0 25 1;
#X connect 27 0 26 0;
#X connect 27 0 13 0;
#X connect 28 0 36 0;
#X connect 29 0 30 0;
#X connect 30 0 28 0;
#X connect 31 0 28 0;
#X connect 31 1 32 0;
#X connect 32 0 29 0;
#X connect 32 0 28 0;
#X connect 33 0 35 0;
#X connect 33 0 35 1;
#X connect 34 0 35 0;
#X connect 34 0 35 1;
#X connect 36 0 35 0;
#X connect 36 0 35 1;
#X connect 37 0 35 0;
#X connect 37 0 35 1;
#X connect 38 0 2 0;
