#N canvas 241 114 807 508 10;
#X obj 166 395 *~ 1;
#X obj 167 367 *~;
#X obj 183 267 *~ 0.8;
#X obj 168 178 *~;
#X obj 168 26 inlet;
#X obj 167 430 outlet~;
#X obj 168 57 bng 15 250 50 0 empty empty empty 17 7 0 10 -262144 -1
-1;
#X msg 205 114 0 300;
#X obj 168 141 line~;
#X obj 184 211 *~ 100;
#X msg 168 114 1 10;
#X obj 200 319 *~ 0.7;
#X obj 184 238 osc~ 100;
#X obj 205 92 del 10;
#X obj 201 297 osc~ 400;
#X connect 0 0 5 0;
#X connect 1 0 0 0;
#X connect 2 0 1 1;
#X connect 2 0 14 0;
#X connect 3 0 1 0;
#X connect 3 0 9 0;
#X connect 4 0 6 0;
#X connect 6 0 10 0;
#X connect 6 0 13 0;
#X connect 7 0 8 0;
#X connect 8 0 3 0;
#X connect 8 0 3 1;
#X connect 9 0 12 0;
#X connect 10 0 8 0;
#X connect 11 0 1 1;
#X connect 12 0 2 0;
#X connect 13 0 7 0;
#X connect 14 0 11 0;
