#N canvas 403 129 516 454 10;
#X msg 195 49 400;
#X floatatom 221 91 5 0 0 0 - - -;
#X obj 200 113 pack;
#X obj 200 142 t b l;
#X msg 64 251 1 40;
#X obj 110 181 bng 15 250 50 0 empty empty empty 17 7 0 10 -262144
-1 -1;
#X floatatom 125 202 5 0 0 0 - - -;
#X msg 110 251 0 100;
#X obj 227 167 line~;
#X obj 110 279 line~;
#X obj 226 330 *~;
#X obj 218 379 dac~;
#X obj 226 264 clip~ -1 1;
#X obj 227 190 phasor~;
#X floatatom 281 173 5 0 0 0 - - -;
#X msg 281 144 10;
#X obj 281 109 loadbang;
#X obj 125 36 loadbang;
#X msg 125 70 100;
#X obj 110 225 del;
#X obj 227 237 *~;
#X obj 281 200 / 10;
#X msg 224 49 500;
#X msg 259 49 600;
#X connect 0 0 2 0;
#X connect 1 0 2 1;
#X connect 2 0 3 0;
#X connect 3 0 5 0;
#X connect 3 1 8 0;
#X connect 4 0 9 0;
#X connect 5 0 4 0;
#X connect 5 0 19 0;
#X connect 6 0 19 1;
#X connect 7 0 9 0;
#X connect 8 0 13 0;
#X connect 9 0 10 1;
#X connect 10 0 11 0;
#X connect 10 0 11 1;
#X connect 12 0 10 0;
#X connect 13 0 20 0;
#X connect 14 0 21 0;
#X connect 15 0 14 0;
#X connect 16 0 15 0;
#X connect 17 0 18 0;
#X connect 18 0 6 0;
#X connect 18 0 1 0;
#X connect 19 0 7 0;
#X connect 20 0 12 0;
#X connect 21 0 20 1;
#X connect 22 0 2 0;
#X connect 23 0 2 0;
