#N canvas 147 38 775 515 10;
#X obj 339 429 outlet~;
#X obj 44 115 phasor~;
#X obj 44 224 *~;
#X obj 44 253 +~;
#X obj 71 224 r~ start;
#X obj 70 196 r~ length;
#X obj 60 36 r~ length;
#X obj 44 11 sig~ 44100;
#X obj 44 61 /~;
#X obj 44 89 *~;
#X obj 98 67 r~ speed;
#X obj 44 287 tabread4~ sampleBank;
#X obj 208 285 tabread4~ envelope;
#X obj 93 335 *~;
#X obj 207 252 *~ 441;
#X obj 434 171 wrap~;
#X obj 389 251 *~;
#X obj 389 280 +~;
#X obj 416 251 r~ start;
#X obj 415 223 r~ length;
#X obj 389 314 tabread4~ sampleBank;
#X obj 553 312 tabread4~ envelope;
#X obj 388 350 *~;
#X obj 552 279 *~ 441;
#X obj 434 148 +~ 0.5;
#X obj 340 392 +~;
#X connect 1 0 2 0;
#X connect 1 0 14 0;
#X connect 1 0 24 0;
#X connect 2 0 3 0;
#X connect 3 0 11 0;
#X connect 4 0 3 1;
#X connect 5 0 2 1;
#X connect 6 0 8 1;
#X connect 7 0 8 0;
#X connect 8 0 9 0;
#X connect 9 0 1 0;
#X connect 10 0 9 1;
#X connect 11 0 13 0;
#X connect 12 0 13 1;
#X connect 13 0 25 0;
#X connect 14 0 12 0;
#X connect 15 0 16 0;
#X connect 15 0 23 0;
#X connect 16 0 17 0;
#X connect 17 0 20 0;
#X connect 18 0 17 1;
#X connect 19 0 16 1;
#X connect 20 0 22 0;
#X connect 21 0 22 1;
#X connect 22 0 25 1;
#X connect 23 0 21 0;
#X connect 24 0 15 0;
#X connect 25 0 0 0;
